HIERARCHY
ROOT reference
{
  OFFSET 0 0 0
  CHANNELS 6 Xposition Yposition Zposition Zrotation Xrotation Yrotation
  JOINT Hips
  {
    OFFSET -61.5299 84.7932 -85.7079
    CHANNELS 6 Xposition Yposition Zposition Zrotation Xrotation Yrotation
    JOINT Spine
    {
      OFFSET 0 8.22665 0
      CHANNELS 6 Xposition Yposition Zposition Zrotation Xrotation Yrotation
      JOINT Spine1
      {
        OFFSET 0 24.451 0
        CHANNELS 6 Xposition Yposition Zposition Zrotation Xrotation Yrotation
        JOINT Neck
        {
          OFFSET 0 24.3506 2.21369
          CHANNELS 6 Xposition Yposition Zposition Zrotation Xrotation Yrotation
          JOINT Head
          {
            OFFSET 0 14.0455 -2.0065
            CHANNELS 6 Xposition Yposition Zposition Zrotation Xrotation Yrotation
            End Site
            {
              OFFSET 0 25.0812 0
            }
          }
        }
        JOINT LeftShoulder
        {
          OFFSET 4.0594 22.2558 -0.272799
          CHANNELS 6 Xposition Yposition Zposition Zrotation Xrotation Yrotation
          JOINT LeftArm
          {
            OFFSET 12.0298 0 0
            CHANNELS 6 Xposition Yposition Zposition Zrotation Xrotation Yrotation
            JOINT LeftForeArm
            {
              OFFSET 31.2689 0 0
              CHANNELS 6 Xposition Yposition Zposition Zrotation Xrotation Yrotation
              JOINT LeftHand
              {
                OFFSET 28.0275 0 0
                CHANNELS 6 Xposition Yposition Zposition Zrotation Xrotation Yrotation
                End Site
                {
                  OFFSET 15.0487 0 0
                }
              }
            }
          }
        }
        JOINT RightShoulder
        {
          OFFSET -3.96464 22.2558 -0.272799
          CHANNELS 6 Xposition Yposition Zposition Zrotation Xrotation Yrotation
          JOINT RightArm
          {
            OFFSET -12.0298 0 0
            CHANNELS 6 Xposition Yposition Zposition Zrotation Xrotation Yrotation
            JOINT RightForeArm
            {
              OFFSET -31.2689 0 0
              CHANNELS 6 Xposition Yposition Zposition Zrotation Xrotation Yrotation
              JOINT RightHand
              {
                OFFSET -28.0275 0 0
                CHANNELS 6 Xposition Yposition Zposition Zrotation Xrotation Yrotation
                End Site
                {
                  OFFSET -15.0487 0 0
                }
              }
            }
          }
        }
      }
    }
    JOINT LeftUpLeg
    {
      OFFSET 10.0325 0 0
      CHANNELS 6 Xposition Yposition Zposition Zrotation Xrotation Yrotation
      JOINT LeftLeg
      {
        OFFSET 0 -38.4033 0
        CHANNELS 6 Xposition Yposition Zposition Zrotation Xrotation Yrotation
        JOINT LeftFoot
        {
          OFFSET 0 -44.1642 0
          CHANNELS 6 Xposition Yposition Zposition Zrotation Xrotation Yrotation
          JOINT LeftToeBase
          {
            OFFSET 0 -6.52112 15.0487
            CHANNELS 6 Xposition Yposition Zposition Zrotation Xrotation Yrotation
            End Site
            {
              OFFSET 0 0 4.013
            }
          }
        }
      }
    }
    JOINT RightUpLeg
    {
      OFFSET -10.0325 0 0
      CHANNELS 6 Xposition Yposition Zposition Zrotation Xrotation Yrotation
      JOINT RightLeg
      {
        OFFSET 0 -38.4033 0
        CHANNELS 6 Xposition Yposition Zposition Zrotation Xrotation Yrotation
        JOINT RightFoot
        {
          OFFSET 0 -44.1642 0
          CHANNELS 6 Xposition Yposition Zposition Zrotation Xrotation Yrotation
          JOINT RightToeBase
          {
            OFFSET 0 -6.52112 15.0487
            CHANNELS 6 Xposition Yposition Zposition Zrotation Xrotation Yrotation
            End Site
            {
              OFFSET 0 0 4.013
            }
          }
        }
      }
    }
  }
}
MOTION
Frames:	10
Frame Time:	0.004
0 0 0 0 0 -0 -25.5542 83.6404 -167.234 -0.803458 -4.78514 -2.48425 7.10543e-015 8.22665 2.84217e-014 -0.829626 -2.1446 -8.4281 -7.10543e-015 24.451 0 -1.1281 8.76155 -8.32613 0 24.3506 2.21369 4.95805 26.2464 12.6382 -3.55271e-015 14.0455 -2.0065 -14.0835 -7.33218 10.7785 4.0594 22.2558 -0.272799 5.0468 9.94243 -6.5775 12.0298 1.42109e-014 0 -65.2766 41.3091 -21.6793 31.2689 2.84217e-014 0 26.4436 -23.8574 -80.6062 28.0275 -2.13163e-014 0 17.2417 1.22424 17.3801 -3.96464 22.2558 -0.272799 -4.62895 13.8566 -5.66365 -12.0298 -2.84217e-014 0 66.274 47.8628 -1.84461 -31.2689 0 0 -12.9106 -17.1837 104.59 -28.0275 -7.10543e-015 -1.42109e-014 -2.08662 -0.199771 -19.0237 10.0325 1.42109e-014 2.84217e-014 11.0294 16.2807 1.03659 -2.22045e-016 -38.4033 0 -3.6399 29.1901 -9.03337 0 -44.1642 0 -3.23085 0.905088 18.1112 0 -6.52112 15.0487 3.97569e-015 -6.36111e-015 -1.59028e-015 -10.0325 0 0 -10.4942 -22.1053 -0.366152 -7.10543e-015 -38.4033 2.84217e-014 5.04421 19.249 -7.54601 0 -44.1642 0 5.08703 -5.9273 -11.8336 0 -6.52112 15.0487 -7.95139e-016 0 3.18055e-015 
0 0 0 0 0 -0 -25.8287 83.756 -166.802 -0.849261 -4.78635 -2.68324 0 8.22665 0 -0.74879 -2.21245 -8.46447 0 24.451 2.84217e-014 -1.1288 8.73322 -8.3638 -1.42109e-014 24.3506 2.21369 4.88376 26.2918 12.8336 -7.10543e-015 14.0455 -2.0065 -14.333 -7.20801 10.9424 4.0594 22.2558 -0.272799 4.91759 10.0097 -6.61139 12.0298 0 -2.84217e-014 -65.2525 41.4293 -21.6572 31.2689 0 7.10543e-015 26.5196 -23.5272 -80.0821 28.0275 0 0 17.1617 1.3958 17.2046 -3.96464 22.2558 -0.272799 -4.60087 13.8832 -5.57799 -12.0298 -2.84217e-014 2.84217e-014 66.2155 47.9373 -1.59922 -31.2689 -7.10543e-015 2.84217e-014 -12.5631 -17.1339 104.154 -28.0275 -2.13163e-014 0 -1.74189 -0.806458 -18.629 10.0325 -1.42109e-014 0 11.1666 16.4851 1.14639 6.66134e-016 -38.4033 2.84217e-014 -3.49124 29.0702 -9.0044 0 -44.1642 0 -3.36729 1.87224 17.9446 -7.10543e-015 -6.52112 15.0487 0 6.36111e-015 -0 -10.0325 -1.42109e-014 0 -10.213 -21.9156 -0.028362 0 -38.4033 1.42109e-014 5.11599 19.3667 -7.45725 1.42109e-014 -44.1642 0 4.72933 -5.93557 -11.9836 1.42109e-014 -6.52112 15.0487 7.95139e-016 1.59028e-015 9.54166e-015 
0 0 0 0 0 -0 -26.1158 83.877 -166.374 -0.911822 -4.72213 -2.88284 0 8.22665 2.84217e-014 -0.69306 -2.33578 -8.51003 0 24.451 -2.84217e-014 -1.0609 8.69695 -8.41521 1.42109e-014 24.3506 2.21369 4.92614 26.4 13.0146 3.55271e-015 14.0455 -2.0065 -14.8435 -7.13644 11.047 4.0594 22.2558 -0.272799 4.81003 10.0715 -6.63589 12.0298 1.42109e-014 2.84217e-014 -65.2763 41.5257 -21.6244 31.2689 0 0 26.5908 -23.0646 -79.5255 28.0275 -1.42109e-014 0 17.1964 1.67806 16.8184 -3.96464 22.2558 -0.272799 -4.58079 14.229 -5.62174 -12.0298 -1.42109e-014 -2.84217e-014 65.7003 48.0095 -0.741134 -31.2689 0 0 -12.1837 -17.0561 103.74 -28.0275 -7.10543e-015 -1.42109e-014 -1.61985 -1.36798 -18.5008 10.0325 0 0 11.3433 16.6419 1.2774 1.33227e-015 -38.4033 0 -3.3464 28.9213 -9.12285 -3.55271e-015 -44.1642 2.84217e-014 -3.67374 2.7614 17.8861 0 -6.52112 15.0487 3.97569e-015 3.18055e-015 -7.95139e-016 -10.0325 0 2.84217e-014 -9.90657 -21.8434 0.45737 0 -38.4033 -1.42109e-014 5.25086 19.564 -7.68784 1.42109e-014 -44.1642 2.84217e-014 4.59077 -5.97897 -12.0565 0 -6.52112 15.0487 7.95139e-016 0 -9.54166e-015 
0 0 0 0 0 -0 -26.4028 84.0008 -165.955 -1.00924 -4.67514 -3.16271 0 8.22665 0 -0.586616 -2.40629 -8.51088 -7.10543e-015 24.451 -2.84217e-014 -0.991868 8.62582 -8.42374 0 24.3506 2.21369 4.93512 26.52 13.2075 -3.55271e-015 14.0455 -2.0065 -15.3102 -7.09268 11.1672 4.0594 22.2558 -0.272799 4.66061 10.1732 -6.70048 12.0298 1.42109e-014 -2.84217e-014 -65.2342 41.5851 -21.6194 31.2689 0 7.10543e-015 26.5154 -22.6612 -79.0739 28.0275 0 0 17.5902 1.90596 16.7304 -3.96464 22.2558 -0.272799 -4.55856 13.9248 -5.36772 -12.0298 0 -2.84217e-014 66.0362 48.1467 -1.13021 -31.2689 0 0 -11.8859 -17.1375 103.329 -28.0275 -7.10543e-015 1.42109e-014 -1.2608 -2.01998 -18.1428 10.0325 1.42109e-014 0 11.4942 16.79 1.376 8.88178e-016 -38.4033 0 -3.21607 28.8459 -9.01335 -3.55271e-015 -44.1642 0 -3.90977 3.68269 17.7522 0 -6.52112 15.0487 -1.59028e-015 6.36111e-015 2.38542e-015 -10.0325 1.42109e-014 2.84217e-014 -9.52861 -21.7762 0.634888 0 -38.4033 -1.42109e-014 5.21487 19.7446 -7.46187 0 -44.1642 0 4.67799 -5.92018 -12.2237 0 -6.52112 15.0487 1.59028e-015 -1.59028e-015 -6.36111e-015 
0 0 0 0 0 -0 -26.6815 84.1113 -165.53 -1.07332 -4.60467 -3.36581 7.10543e-015 8.22665 0 -0.522723 -2.53372 -8.55018 -7.10543e-015 24.451 0 -0.911138 8.57953 -8.47027 -1.42109e-014 24.3506 2.21369 4.91044 26.6015 13.3989 -3.55271e-015 14.0455 -2.0065 -15.72 -6.9707 11.3029 4.0594 22.2558 -0.272799 4.53247 10.2454 -6.78331 12.0298 5.68434e-014 0 -65.2892 41.5896 -21.541 31.2689 -2.84217e-014 -7.10543e-015 26.4557 -22.2105 -78.5325 28.0275 -7.10543e-015 0 17.5847 2.05995 16.368 -3.96464 22.2558 -0.272799 -4.58969 14.0641 -5.27288 -12.0298 -1.42109e-014 0 65.8215 48.2055 -0.67832 -31.2689 0 0 -11.4538 -17.0643 102.89 -28.0275 -7.10543e-015 0 -1.24729 -2.62475 -17.921 10.0325 0 0 11.6277 16.9418 1.35048 4.44089e-016 -38.4033 -2.84217e-014 -3.09654 28.7206 -8.99652 0 -44.1642 -2.84217e-014 -4.18425 4.43702 17.7235 0 -6.52112 15.0487 -0 -3.18055e-015 -0 -10.0325 0 0 -9.25692 -21.7453 1.02155 0 -38.4033 -1.42109e-014 5.34671 19.979 -7.42818 0 -44.1642 0 4.75479 -6.02237 -12.5413 1.42109e-014 -6.52112 15.0487 7.95139e-016 -1.59028e-015 -0 
0 0 0 0 0 -0 -26.9652 84.2173 -165.1 -1.13719 -4.49242 -3.64104 0 8.22665 0 -0.436184 -2.71364 -8.56917 7.10543e-015 24.451 0 -0.8772 8.56523 -8.49315 0 24.3506 2.21369 4.91034 26.6645 13.597 0 14.0455 -2.0065 -16.149 -6.87821 11.4403 4.0594 22.2558 -0.272799 4.37364 10.4214 -6.8113 12.0298 0 0 -65.1671 41.6445 -21.6056 31.2689 0 0 26.3656 -21.8078 -78.0861 28.0275 7.10543e-015 0 18.0864 2.28471 16.2311 -3.96464 22.2558 -0.272799 -4.56763 14.0774 -5.15122 -12.0298 1.42109e-014 0 65.6635 48.3261 -0.39247 -31.2689 7.10543e-015 0 -11.1655 -17.1202 102.419 -28.0275 7.10543e-015 -7.10543e-015 -0.840346 -3.23888 -17.736 10.0325 0 0 11.7226 17.0813 1.44904 -3.10862e-015 -38.4033 0 -2.90207 28.5926 -9.08671 0 -44.1642 0 -4.43656 5.24741 17.6363 0 -6.52112 15.0487 -7.95139e-016 -6.36111e-015 7.95139e-016 -10.0325 0 0 -8.92225 -21.7707 1.02529 0 -38.4033 -2.84217e-014 5.25155 20.2245 -7.12729 0 -44.1642 0 4.82396 -6.03672 -12.6752 0 -6.52112 15.0487 7.95139e-016 -3.18055e-015 -0 
0 0 0 0 0 -0 -27.2393 84.3213 -164.665 -1.1992 -4.45713 -3.83309 0 8.22665 -2.84217e-014 -0.372828 -2.81334 -8.62159 0 24.451 0 -0.785143 8.55264 -8.55372 0 24.3506 2.21369 4.86665 26.7123 13.8155 3.55271e-015 14.0455 -2.0065 -16.5649 -6.78274 11.5976 4.0594 22.2558 -0.272799 4.32494 10.4118 -6.86705 12.0298 -2.84217e-014 -2.84217e-014 -65.3872 41.697 -21.4395 31.2689 2.84217e-014 0 26.3544 -21.3443 -77.5201 28.0275 1.42109e-014 -2.84217e-014 18.1745 2.49527 15.8376 -3.96464 22.2558 -0.272799 -4.56094 14.0645 -5.08624 -12.0298 0 -2.84217e-014 65.4616 48.4853 -0.072603 -31.2689 -2.13163e-014 -2.84217e-014 -10.6732 -17.0482 102.092 -28.0275 -7.10543e-015 0 -1.17285 -3.81453 -17.8924 10.0325 -1.42109e-014 2.84217e-014 11.8345 17.2584 1.28175 3.55271e-015 -38.4033 -2.84217e-014 -2.82883 28.4797 -8.96795 3.55271e-015 -44.1642 0 -4.57879 5.93817 17.5055 3.55271e-015 -6.52112 15.0487 2.38542e-015 -9.54166e-015 -1.59028e-015 -10.0325 0 -2.84217e-014 -8.6709 -21.7136 1.32801 -7.10543e-015 -38.4033 2.84217e-014 5.36533 20.4762 -7.21585 0 -44.1642 -2.84217e-014 4.79079 -6.01659 -12.8755 0 -6.52112 15.0487 0 0 -3.18055e-015 
0 0 0 0 0 -0 -27.5125 84.4242 -164.234 -1.27466 -4.37852 -4.03263 -7.10543e-015 8.22665 0 -0.274567 -2.94882 -8.66694 -7.10543e-015 24.451 2.84217e-014 -0.729037 8.50152 -8.60569 0 24.3506 2.21369 4.93698 26.8409 14.0073 7.10543e-015 14.0455 -2.0065 -17.1375 -6.7119 11.7085 4.0594 22.2558 -0.272799 4.19747 10.5617 -6.95042 12.0298 -1.42109e-014 0 -65.368 41.7249 -21.4173 31.2689 2.84217e-014 0 26.3599 -20.9444 -76.9371 28.0275 0 -2.84217e-014 18.2899 2.64542 15.4244 -3.96464 22.2558 -0.272799 -4.53353 14.069 -4.96514 -12.0298 0 -2.84217e-014 65.2879 48.6023 0.163307 -31.2689 0 -2.84217e-014 -10.5897 -17.1757 101.553 -28.0275 1.42109e-014 -7.10543e-015 -0.399507 -4.30257 -17.5179 10.0325 0 0 11.9703 17.3195 0.991551 -4.44089e-015 -38.4033 2.84217e-014 -2.8528 28.511 -8.72824 3.55271e-015 -44.1642 0 -4.8093 6.65551 17.5466 0 -6.52112 15.0487 7.95139e-016 9.54166e-015 -0 -10.0325 -1.42109e-014 0 -8.35231 -21.6805 1.13086 0 -38.4033 1.42109e-014 5.18898 20.7192 -6.95996 0 -44.1642 -2.84217e-014 4.97479 -5.88579 -12.9032 0 -6.52112 15.0487 8.82781e-032 1.59028e-015 -3.18055e-015 
0 0 0 0 0 -0 -27.7815 84.5152 -163.807 -1.32088 -4.33125 -4.18647 -7.10543e-015 8.22665 2.84217e-014 -0.235801 -3.05716 -8.75304 7.10543e-015 24.451 2.84217e-014 -0.634581 8.48595 -8.69966 0 24.3506 2.21369 4.97644 26.9012 14.2146 0 14.0455 -2.0065 -17.6667 -6.59395 11.8457 4.0594 22.2558 -0.272799 4.01838 10.7147 -6.993 12.0298 4.26326e-014 0 -65.3176 41.6638 -21.3898 31.2689 -5.68434e-014 0 26.2008 -20.5627 -76.5255 28.0275 7.10543e-015 2.84217e-014 18.4419 2.74352 15.2327 -3.96464 22.2558 -0.272799 -4.48868 14.0444 -4.80723 -12.0298 0 2.84217e-014 65.0662 48.7763 0.408128 -31.2689 -7.10543e-015 0 -10.3589 -17.2779 101.099 -28.0275 -7.10543e-015 -7.10543e-015 -0.40008 -4.80053 -17.4766 10.0325 -1.42109e-014 0 12.0206 17.4332 0.715877 -1.77636e-015 -38.4033 0 -2.68441 28.5169 -8.81542 -7.10543e-015 -44.1642 0 -4.98184 7.27227 17.6383 -3.55271e-015 -6.52112 15.0487 -2.38542e-015 0 -1.59028e-015 -10.0325 1.42109e-014 2.84217e-014 -8.13292 -21.5869 1.05673 0 -38.4033 1.42109e-014 5.16055 20.9307 -6.75314 0 -44.1642 0 4.97251 -5.83625 -13.0672 0 -6.52112 15.0487 -7.95139e-016 -1.59028e-015 -3.18055e-015 
0 0 0 0 0 -0 -28.077 84.6064 -163.357 -1.36948 -4.34099 -4.37099 -7.10543e-015 8.22665 0 -0.355119 -3.16567 -8.78678 0 24.451 0 -0.273509 8.61647 -8.75637 0 24.3506 2.21369 4.81704 26.9444 14.3944 0 14.0455 -2.0065 -18.0586 -6.64393 11.9345 4.0594 22.2558 -0.272799 3.80189 10.6686 -7.12302 12.0298 -1.42109e-014 0 -65.4062 41.7211 -21.2602 31.2689 0 7.10543e-015 26.0308 -20.2124 -75.9835 28.0275 -7.10543e-015 2.84217e-014 18.7518 2.75756 14.9557 -3.96464 22.2558 -0.272799 -4.50332 13.9646 -4.77668 -12.0298 0 0 64.7668 48.9239 0.72041 -31.2689 -1.42109e-014 0 -10.3195 -17.3972 100.555 -28.0275 -7.10543e-015 1.42109e-014 0.103615 -5.1728 -17.434 10.0325 -1.42109e-014 2.84217e-014 12.0898 17.6207 0.583219 1.77636e-015 -38.4033 0 -2.49465 28.4976 -8.99858 0 -44.1642 2.84217e-014 -5.02514 8.2268 17.7296 0 -6.52112 15.0487 -1.59028e-015 9.54166e-015 -2.38542e-015 -10.0325 0 2.84217e-014 -7.91676 -21.4283 1.25283 0 -38.4033 1.42109e-014 5.29051 21.1215 -6.71523 0 -44.1642 2.84217e-014 4.94138 -5.8566 -13.3984 0 -6.52112 15.0487 7.95139e-016 0 3.18055e-015 
